{"accessors":{"accessor_0":{"bufferView":"bufferView_0","byteOffset":32996,"byteStride":0,"componentType":5123,"count":8249,"min":[0,0,0],"max":[65535,65535,65535],"type":"VEC3","extensions":{"WEB3D_quantized_attributes":{"decodedMin":[-21.46339988708496,-12.475299835205078,-0.040300000458955765],"decodedMax":[13.06719970703125,12.5,13.017399787902832],"decodeMatrix":[0.0005269031753126758,0,0,0,0,0.0003810986470619528,0,0,0,0,0.00019924772699110075,0,-21.46339988708496,-12.475299835205078,-0.040300000458955765,1]}}},"accessor_1":{"bufferView":"bufferView_0","byteOffset":82490,"byteStride":0,"componentType":5121,"count":8249,"min":[0,0],"max":[255,255],"type":"VEC2"},"accessor_2":{"bufferView":"bufferView_0","byteOffset":0,"byteStride":0,"componentType":5126,"count":8249,"min":[127040],"max":[16655722],"type":"SCALAR"},"accessor_3":{"bufferView":"bufferView_1","byteOffset":0,"byteStride":0,"componentType":5123,"count":39600,"min":[0],"max":[8248],"type":"SCALAR"}},"asset":{"generator":"obj2gltf","profile":{"api":"WebGL","version":"1.0"},"version":"1.0","premultipliedAlpha":true},"buffers":{"buffer":{"byteLength":178188,"uri":"data:application/octet-stream;base64,","type":"arraybuffer"}},"bufferViews":{"bufferView_0":{"buffer":"buffer","byteLength":98988,"byteOffset":0,"target":34962},"bufferView_1":{"buffer":"buffer","byteLength":79200,"byteOffset":98988,"target":34963}},"extensionsUsed":["WEB3D_quantized_attributes"],"images":{},"materials":{"10126_Traditional_corded_phone_v1_SG":{"technique":"technique0","values":{"ambient":[0,0,0,1],"diffuse":[0.5,0.5,0.5,1],"emission":[0,0,0,1],"specular":[0,0,0,1],"shininess":0,"transparency":1}}},"meshes":{"10126_Traditional_corded_phone_SG_1":{"name":"10126_Traditional_corded_phone_SG_1","primitives":[{"attributes":{"POSITION":"accessor_0","NORMAL":"accessor_1","TEXCOORD_0":"accessor_2"},"indices":"accessor_3","material":"10126_Traditional_corded_phone_v1_SG","mode":4}]}},"nodes":{"10126_Traditional_corded_phone_SG":{"name":"10126_Traditional_corded_phone_SG","meshes":["10126_Traditional_corded_phone_SG_1"],"children":[],"matrix":[1,0,0,0,0,1,0,0,0,0,1,0,0,0,0,1]}},"samplers":{},"scene":"scene","scenes":{"scene":{"nodes":["10126_Traditional_corded_phone_SG"]}},"textures":{},"animations":{},"cameras":{},"programs":{"program0":{"attributes":["a_position","a_normal","a_texcoord_0"],"fragmentShader":"fragmentShader0","vertexShader":"vertexShader0"}},"shaders":{"vertexShader0":{"type":35633,"uri":"data:text/plain;base64,"},"fragmentShader0":{"type":35632,"uri":"data:text/plain;base64,"}},"skins":{},"techniques":{"technique0":{"attributes":{"a_position":"position","a_normal":"normal","a_texcoord_0":"texcoord_0"},"parameters":{"modelViewMatrix":{"semantic":"MODELVIEW","type":35676},"projectionMatrix":{"semantic":"PROJECTION","type":35676},"normalMatrix":{"semantic":"MODELVIEWINVERSETRANSPOSE","type":35675},"ambient":{"type":35666},"diffuse":{"type":35666},"emission":{"type":35666},"specular":{"type":35666},"shininess":{"type":5126},"transparency":{"type":5126},"position":{"semantic":"POSITION","type":35665},"normal":{"semantic":"NORMAL","type":35667},"texcoord_0":{"semantic":"TEXCOORD_0","type":5126}},"program":"program0","states":{"enable":[2884,2929]},"uniforms":{"u_modelViewMatrix":"modelViewMatrix","u_projectionMatrix":"projectionMatrix","u_normalMatrix":"normalMatrix","u_ambient":"ambient","u_diffuse":"diffuse","u_emission":"emission","u_specular":"specular","u_shininess":"shininess","u_transparency":"transparency"}}}}
